<?xml version="1.0" encoding="UTF-8" standalone="no"?>
<!DOCTYPE svg PUBLIC "-//W3C//DTD SVG 1.1//EN"
 "http://www.w3.org/Graphics/SVG/1.1/DTD/svg11.dtd">
<!-- Generated by graphviz version 2.43.0 (0)
 -->
<!-- Title: YourLastNameModel Pages: 1 -->
<svg width="576pt" height="293pt"
 viewBox="0.00 0.00 576.00 293.24" xmlns="http://www.w3.org/2000/svg" xmlns:xlink="http://www.w3.org/1999/xlink">
<g id="graph0" class="graph" transform="scale(0.75 0.75) rotate(0) translate(4 388)">
<title>YourLastNameModel</title>
<polygon fill="white" stroke="transparent" points="-4,4 -4,-388 766,-388 766,4 -4,4"/>
<!-- Communication -->
<g id="node1" class="node">
<title>Communication</title>
<path fill="lightblue" stroke="lightblue" d="M175,-384C175,-384 71,-384 71,-384 65,-384 59,-378 59,-372 59,-372 59,-360 59,-360 59,-354 65,-348 71,-348 71,-348 175,-348 175,-348 181,-348 187,-354 187,-360 187,-360 187,-372 187,-372 187,-378 181,-384 175,-384"/>
<text text-anchor="middle" x="123" y="-362.3" font-family="Times,serif" font-size="14.00">Communication</text>
</g>
<!-- Planning -->
<g id="node2" class="node">
<title>Planning</title>
<path fill="lightblue" stroke="lightblue" d="M68,-297C68,-297 12,-297 12,-297 6,-297 0,-291 0,-285 0,-285 0,-273 0,-273 0,-267 6,-261 12,-261 12,-261 68,-261 68,-261 74,-261 80,-267 80,-273 80,-273 80,-285 80,-285 80,-291 74,-297 68,-297"/>
<text text-anchor="middle" x="40" y="-275.3" font-family="Times,serif" font-size="14.00">Planning</text>
</g>
<!-- Communication&#45;&gt;Planning -->
<g id="edge1" class="edge">
<title>Communication&#45;&gt;Planning</title>
<path fill="none" stroke="black" d="M106.2,-347.8C94.05,-335.36 77.46,-318.36 63.93,-304.5"/>
<polygon fill="black" stroke="black" points="66.26,-301.88 56.77,-297.18 61.25,-306.78 66.26,-301.88"/>
</g>
<!-- Prototyping -->
<g id="node6" class="node">
<title>Prototyping</title>
<ellipse fill="lightyellow" stroke="lightyellow" cx="208" cy="-279" rx="110.48" ry="18"/>
<text text-anchor="middle" x="208" y="-275.3" font-family="Times,serif" font-size="14.00">Prototyping (Parallel)</text>
</g>
<!-- Communication&#45;&gt;Prototyping -->
<g id="edge8" class="edge">
<title>Communication&#45;&gt;Prototyping</title>
<path fill="none" stroke="black" d="M140.2,-347.8C152.73,-335.27 169.86,-318.14 183.77,-304.23"/>
<polygon fill="black" stroke="black" points="186.52,-306.43 191.11,-296.89 181.57,-301.48 186.52,-306.43"/>
<text text-anchor="middle" x="234.5" y="-318.8" font-family="Times,serif" font-size="14.00">Start Prototyping</text>
</g>
<!-- Modeling -->
<g id="node3" class="node">
<title>Modeling</title>
<path fill="lightblue" stroke="lightblue" d="M276.5,-210C276.5,-210 217.5,-210 217.5,-210 211.5,-210 205.5,-204 205.5,-198 205.5,-198 205.5,-186 205.5,-186 205.5,-180 211.5,-174 217.5,-174 217.5,-174 276.5,-174 276.5,-174 282.5,-174 288.5,-180 288.5,-186 288.5,-186 288.5,-198 288.5,-198 288.5,-204 282.5,-210 276.5,-210"/>
<text text-anchor="middle" x="247" y="-188.3" font-family="Times,serif" font-size="14.00">Modeling</text>
</g>
<!-- Planning&#45;&gt;Modeling -->
<g id="edge2" class="edge">
<title>Planning&#45;&gt;Modeling</title>
<path fill="none" stroke="black" d="M40.37,-260.78C41.55,-249.85 44.94,-236.25 54,-228 74.26,-209.55 145.3,-200.47 195.29,-196.26"/>
<polygon fill="black" stroke="black" points="195.6,-199.75 205.29,-195.46 195.04,-192.77 195.6,-199.75"/>
</g>
<!-- Modeling&#45;&gt;Planning -->
<g id="edge5" class="edge">
<title>Modeling&#45;&gt;Planning</title>
<path fill="none" stroke="black" d="M205.4,-196.07C172.65,-199.92 126.72,-208.57 91,-228 79.43,-234.29 68.67,-243.98 60.06,-253.15"/>
<polygon fill="black" stroke="black" points="57.41,-250.86 53.35,-260.65 62.62,-255.53 57.41,-250.86"/>
<text text-anchor="middle" x="125" y="-231.8" font-family="Times,serif" font-size="14.00">Feedback</text>
</g>
<!-- Construction -->
<g id="node4" class="node">
<title>Construction</title>
<path fill="lightblue" stroke="lightblue" d="M467.5,-123C467.5,-123 382.5,-123 382.5,-123 376.5,-123 370.5,-117 370.5,-111 370.5,-111 370.5,-99 370.5,-99 370.5,-93 376.5,-87 382.5,-87 382.5,-87 467.5,-87 467.5,-87 473.5,-87 479.5,-93 479.5,-99 479.5,-99 479.5,-111 479.5,-111 479.5,-117 473.5,-123 467.5,-123"/>
<text text-anchor="middle" x="425" y="-101.3" font-family="Times,serif" font-size="14.00">Construction</text>
</g>
<!-- Modeling&#45;&gt;Construction -->
<g id="edge3" class="edge">
<title>Modeling&#45;&gt;Construction</title>
<path fill="none" stroke="black" d="M283.02,-173.8C310.98,-160.45 349.9,-141.86 379.93,-127.52"/>
<polygon fill="black" stroke="black" points="381.82,-130.5 389.34,-123.03 378.8,-124.18 381.82,-130.5"/>
</g>
<!-- Construction&#45;&gt;Modeling -->
<g id="edge6" class="edge">
<title>Construction&#45;&gt;Modeling</title>
<path fill="none" stroke="black" d="M402.63,-123.17C388.18,-133.67 368.67,-146.8 350,-156 333.71,-164.02 315.13,-170.96 298.28,-176.49"/>
<polygon fill="black" stroke="black" points="297.05,-173.21 288.59,-179.58 299.18,-179.87 297.05,-173.21"/>
<text text-anchor="middle" x="409" y="-144.8" font-family="Times,serif" font-size="14.00">Feedback</text>
</g>
<!-- Deployment -->
<g id="node5" class="node">
<title>Deployment</title>
<path fill="lightblue" stroke="lightblue" d="M497.5,-36C497.5,-36 418.5,-36 418.5,-36 412.5,-36 406.5,-30 406.5,-24 406.5,-24 406.5,-12 406.5,-12 406.5,-6 412.5,0 418.5,0 418.5,0 497.5,0 497.5,0 503.5,0 509.5,-6 509.5,-12 509.5,-12 509.5,-24 509.5,-24 509.5,-30 503.5,-36 497.5,-36"/>
<text text-anchor="middle" x="458" y="-14.3" font-family="Times,serif" font-size="14.00">Deployment</text>
</g>
<!-- Construction&#45;&gt;Deployment -->
<g id="edge4" class="edge">
<title>Construction&#45;&gt;Deployment</title>
<path fill="none" stroke="black" d="M428.86,-86.56C431.27,-76.8 434.73,-64.53 439,-54 440.18,-51.08 441.55,-48.1 442.99,-45.16"/>
<polygon fill="black" stroke="black" points="446.21,-46.56 447.74,-36.07 440,-43.31 446.21,-46.56"/>
</g>
<!-- Deployment&#45;&gt;Construction -->
<g id="edge7" class="edge">
<title>Deployment&#45;&gt;Construction</title>
<path fill="none" stroke="black" d="M451.33,-36.18C446.77,-47.92 440.63,-63.73 435.43,-77.13"/>
<polygon fill="black" stroke="black" points="432.03,-76.21 431.68,-86.8 438.56,-78.74 432.03,-76.21"/>
<text text-anchor="middle" x="477" y="-57.8" font-family="Times,serif" font-size="14.00">Feedback</text>
</g>
<!-- Prototyping&#45;&gt;Modeling -->
<g id="edge9" class="edge">
<title>Prototyping&#45;&gt;Modeling</title>
<path fill="none" stroke="black" d="M179.55,-261.5C167.18,-252.14 157.11,-239.94 165,-228 172.2,-217.1 183.57,-209.58 195.58,-204.4"/>
<polygon fill="black" stroke="black" points="197.16,-207.54 205.28,-200.72 194.69,-200.99 197.16,-207.54"/>
<text text-anchor="middle" x="236.5" y="-231.8" font-family="Times,serif" font-size="14.00">Prototype Feedback</text>
</g>
<!-- Feedback -->
<g id="node7" class="node">
<title>Feedback</title>
<polygon fill="lightgreen" stroke="lightgreen" points="318,-384 204.89,-366 318,-348 431.11,-366 318,-384"/>
<text text-anchor="middle" x="318" y="-362.3" font-family="Times,serif" font-size="14.00">Feedback Loop</text>
</g>
<!-- Checkpoints -->
<g id="node8" class="node">
<title>Checkpoints</title>
<polygon fill="lightcoral" stroke="lightcoral" points="609.14,-279 555.57,-297 448.43,-297 394.86,-279 448.43,-261 555.57,-261 609.14,-279"/>
<text text-anchor="middle" x="502" y="-275.3" font-family="Times,serif" font-size="14.00">User Checkpoints</text>
</g>
<!-- Checkpoints&#45;&gt;Modeling -->
<g id="edge10" class="edge">
<title>Checkpoints&#45;&gt;Modeling</title>
<path fill="none" stroke="black" d="M425.27,-268.61C395.13,-263.31 360.71,-255.21 331,-243 319.71,-238.36 318.41,-234.37 308,-228 301.12,-223.79 293.72,-219.42 286.54,-215.25"/>
<polygon fill="black" stroke="black" points="288.02,-212.06 277.61,-210.11 284.53,-218.13 288.02,-212.06"/>
<text text-anchor="middle" x="409.5" y="-231.8" font-family="Times,serif" font-size="14.00">Iterative User Review</text>
</g>
<!-- Checkpoints&#45;&gt;Construction -->
<g id="edge11" class="edge">
<title>Checkpoints&#45;&gt;Construction</title>
<path fill="none" stroke="black" d="M497.9,-260.65C495.42,-250.92 491.97,-238.64 488,-228 473.07,-187.95 467.52,-178.5 447,-141 445.38,-138.04 443.61,-134.99 441.81,-131.98"/>
<polygon fill="black" stroke="black" points="444.62,-129.87 436.39,-123.2 438.66,-133.55 444.62,-129.87"/>
<text text-anchor="middle" x="558.5" y="-188.3" font-family="Times,serif" font-size="14.00">Iterative User Review</text>
</g>
<!-- Checkpoints&#45;&gt;Deployment -->
<g id="edge12" class="edge">
<title>Checkpoints&#45;&gt;Deployment</title>
<path fill="none" stroke="black" d="M564.28,-263.72C592.85,-253.72 624.08,-237.12 641,-210 649.47,-196.43 647.3,-188.71 641,-174 614.3,-111.7 547.56,-65.96 502.5,-40.91"/>
<polygon fill="black" stroke="black" points="503.97,-37.72 493.52,-36.03 500.63,-43.88 503.97,-37.72"/>
<text text-anchor="middle" x="696" y="-144.8" font-family="Times,serif" font-size="14.00">Final User Review</text>
</g>
</g>
</svg>
